    <svg id="forecast" viewBox="0 0 100 100">
        <svg x="10" y="10">
            <g transform="scale(2)">
                <g fill="#000000" fill-rule="evenodd">
                    <path d="m30.5304271 18.7819284.1186849.2057637-1.4078049.6456938c-.9917764-1.4018437-2.5593009-2.3422971-4.3477813-2.5032472-1.0157659-1.2705589-2.4456664-1.981264-3.9923579-2.0001993-.8996063-1.8209451-2.5106906-3.1685076-4.443108-3.730255l.0012626-1.52176728 2.6716728.25120838 1.3440433-2.32273068 2.188095 1.55332613 2.3250876-1.33998837 1.1186683 2.43886722 2.6836675.0018935-.2512584 2.6717715 2.3231937 1.3431442-1.5536358 2.1876589zm-6.164039 7.7931401h-14.0591098c-2.06120317-.1256042-3.97973191-1.8152645-3.97973191-3.9038286 0-1.7748692 1.20389414-3.3679594 2.89578523-3.8413421l.69127639-.0473382.07512502-.0050494-.02903993-.7107051c.1186849-2.4073084 1.7537587-4.2074246 4.0624325-4.3898347.1275231-.0100989.2556776-.0183042.3869885-.0183042h.0151513c2.188095 0 4.086422 1.5293414 4.5744189 3.687335l.1773961.7750851.7392554-.2745619c.2948183-.110456.6060505-.1678931.9204392-.1691554.8541525 0 1.6148722.4279379 2.1136013 1.1045594.1054275.1432771.2146429.2827672.2935557.4481355l.2152742.4487668h.4886283c.1319422-.0157795.2645158-.0239848.3970893-.0252471 1.7935308 0 3.2587843 1.3349389 3.4380742 3.0959223.0119948.11803.0359843.232273.0359843.3540901 0 1.8865875-1.5889888 3.3894195-3.4525942 3.4714725zm10.6317678 2.5764638c1.9551443-3.0725688 2.9936372-6.6481854 3.0018441-10.3008056 0-.0233536-.0031565-.0460759-.0031565-.0687983-.1186849-10.39232621-8.571196-18.7819284-18.99274-18.7819284-10.42217537 0-18.87531776 8.39023337-18.99337136 18.7825596h-.01073214c0 .0372394.00505042.0725853.00568172.1091936-.0006313.0366082-.00568172.0719541-.00568172.1079312 0 10.4529192 8.44367285 18.9283614 18.8835247 18.9940038.0404033.0006312.0795441.0063118.1199475.0063118h.0050504c.5927932-.0006312 1.1773794-.0359771 1.7562839-.0889959.1944413-.0183042.3876199-.0460759.5814298-.0700607.3680494-.0454447.732311-.1009882 1.0934162-.1666306.2563088-.0479695.5126177-.0978324.7664014-.1559007.2613593-.0593306.5176681-.1293913.7752396-.1994519.3169139-.0871024.6357218-.1697865.9475853-.2732995.0214643-.006943.0416659-.0157795.0631302-.0227224 1.9248418-.6393821 3.7063779-1.5823603 5.3029422-2.7658168l6.7555696 1.9238269-2.035951-6.9732414z"/>
                </g>
            </g>
        </svg>
    </svg>
