<?xml version="1.0" encoding="utf-8"?>
<!-- Generator: Adobe Illustrator 23.1.1, SVG Export Plug-In . SVG Version: 6.00 Build 0)  -->
<svg version="1.1" id="Layer_1" xmlns="http://www.w3.org/2000/svg" xmlns:xlink="http://www.w3.org/1999/xlink" x="0px" y="0px"
	 viewBox="0 0 500 443" style="enable-background:new 0 0 500 443;" xml:space="preserve">
<style type="text/css">
	.st0{fill:#000000;}
	.st1{fill:#FFFFFF;}
	.st2{fill:#FFFFFF;}
	.st3{fill:none;}
</style>
<path class="st0" d="M-4,0.9v442.4h500V0.9H-4z M350.4,246.5h34.2v5.9h-7.1v12.1h7.1v4.2h-7.1V284h7.1v5.1h-34.2V246.5z
	 M300.7,170.5v27.1h9.5v-27.2c0,0,44.2,5,31.6,46.7l-73.3,0C268.5,217.2,257,178.1,300.7,170.5z M341.9,225.2v63.9h-31.6v-63.9
	H341.9z M300.7,225.2v63.9h-32.1v-63.9H300.7z M223.8,246.5h36.3v42.6h-36.3v-29h22.9v-7.6h-22.9V246.5z M52.5,101.1
	c3-29.6,26.6-52.4,71.6-56.4v60.3h21.2V44.7c0,0,98.2,11.1,70.3,103.8l-162.9,0c0,0-0.1-0.3-0.2-0.8V101.1z M419.9,348.8H52.7V157.4
	l71.4,0v102.7h21.2V157.4h70.3v131.7l-70.3,0v-14.5h-21.2V305h285.7v-15.9h-19v-42.6h10v13.5h7.8v-13.6l11.2,0V348.8z M419.5,242.6
	l-27.2,0c0,0-4.3-14.6,11.9-17.4v10.1h3.5v-10.1C407.8,225.2,424.2,227.1,419.5,242.6z"/>
<path class="st1" d="M-1.6-0.1v442.4h500V-0.1H-1.6z M352.8,245.5H387v5.9h-7.1v12.1h7.1v4.2h-7.1V283h7.1v5.1h-34.2V245.5z
	 M303.1,169.5v27.1h9.5v-27.2c0,0,44.2,5,31.6,46.7l-73.3,0C271,216.2,259.4,177.1,303.1,169.5z M344.3,224.2v63.9h-31.6v-63.9
	H344.3z M303.1,224.2v63.9h-32.1v-63.9H303.1z M226.2,245.5h36.3v42.6h-36.3v-29h22.9v-7.6h-22.9V245.5z M55,100.1
	c3-29.6,26.6-52.4,71.6-56.4v60.3h21.2V43.7c0,0,98.2,11.1,70.3,103.8l-162.9,0c0,0-0.1-0.3-0.2-0.8V100.1z M422.3,347.8H55.2V156.4
	l71.4,0v102.7h21.2V156.4h70.3v131.7l-70.3,0v-14.5h-21.2V304h285.7v-15.9h-19v-42.6h10v13.5h7.8v-13.6l11.2,0V347.8z M421.9,241.6
	l-27.2,0c0,0-4.3-14.6,11.9-17.4v10.1h3.5v-10.1C410.2,224.2,426.6,226.1,421.9,241.6z"/>
<g>
	<path class="st0" d="M58.7,389.4c0.8-0.1,1.6-0.3,2.5-0.3c0.9-0.1,1.8-0.1,2.7-0.1c0.9,0,1.9,0.1,2.8,0.2c1,0.2,1.8,0.5,2.6,0.9
		s1.4,1.1,1.9,1.9c0.5,0.8,0.7,1.9,0.7,3.2c0,1.2-0.2,2.2-0.6,3s-1,1.5-1.7,2c-0.7,0.5-1.5,0.9-2.4,1.1c-0.9,0.2-1.8,0.4-2.7,0.4
		c-0.1,0-0.2,0-0.4,0s-0.4,0-0.6,0c-0.2,0-0.4,0-0.6,0c-0.2,0-0.4,0-0.4-0.1v6.6h-3.7V389.4z M64.3,392.1c-0.4,0-0.7,0-1,0
		c-0.3,0-0.6,0.1-0.8,0.1v6.2c0.1,0,0.2,0,0.3,0.1c0.1,0,0.3,0,0.5,0c0.2,0,0.3,0,0.5,0c0.2,0,0.3,0,0.3,0c0.5,0,1,0,1.5-0.1
		c0.5-0.1,0.9-0.3,1.3-0.5c0.4-0.2,0.7-0.6,0.9-1c0.2-0.4,0.3-1,0.3-1.7c0-0.6-0.1-1.1-0.3-1.5c-0.2-0.4-0.5-0.7-0.9-0.9
		s-0.8-0.4-1.2-0.5S64.7,392.1,64.3,392.1z"/>
	<path class="st0" d="M87.9,389.2h3.5v12.3c0,1.2-0.2,2.3-0.5,3.2c-0.3,0.9-0.8,1.6-1.4,2.2s-1.3,1-2.1,1.3
		c-0.8,0.3-1.8,0.4-2.7,0.4c-4.8,0-7.2-2.2-7.2-6.6v-12.8h3.7v12c0,0.7,0.1,1.4,0.2,1.9s0.3,0.9,0.6,1.3c0.3,0.3,0.7,0.5,1.1,0.7
		c0.4,0.1,0.9,0.2,1.5,0.2c1.1,0,2-0.3,2.5-1c0.5-0.6,0.8-1.7,0.8-3.1V389.2z"/>
	<path class="st0" d="M110.6,393.6c0,0.5-0.1,0.9-0.2,1.4c-0.1,0.5-0.3,0.9-0.6,1.3c-0.3,0.4-0.6,0.7-1.1,1c-0.4,0.3-1,0.5-1.6,0.7
		v0.2c0.5,0.1,1.1,0.2,1.5,0.5c0.5,0.2,0.9,0.5,1.3,0.9s0.6,0.8,0.9,1.4c0.2,0.5,0.3,1.2,0.3,1.9c0,1-0.2,1.8-0.6,2.5
		s-1,1.3-1.7,1.8c-0.7,0.5-1.5,0.8-2.4,1c-0.9,0.2-1.8,0.3-2.7,0.3c-0.3,0-0.7,0-1.2,0s-1,0-1.5,0c-0.6,0-1.1-0.1-1.7-0.1
		c-0.6-0.1-1.1-0.1-1.6-0.2v-18.8c0.3-0.1,0.7-0.1,1.2-0.2s0.9-0.1,1.4-0.1s1-0.1,1.6-0.1c0.5,0,1.1,0,1.6,0c0.9,0,1.8,0.1,2.6,0.2
		c0.8,0.1,1.6,0.4,2.3,0.7c0.7,0.3,1.2,0.8,1.6,1.4C110.4,391.9,110.6,392.7,110.6,393.6z M102.6,397.2c0.3,0,0.5,0,0.9,0
		c0.3,0,0.6,0,0.8-0.1c0.7-0.2,1.3-0.5,1.8-1c0.5-0.4,0.7-1,0.7-1.7c0-0.5-0.1-0.9-0.3-1.2c-0.2-0.3-0.4-0.5-0.7-0.7
		c-0.3-0.2-0.6-0.3-1-0.4c-0.4-0.1-0.8-0.1-1.2-0.1c-0.5,0-0.9,0-1.3,0c-0.4,0-0.7,0-0.9,0.1v5H102.6z M103.8,405.4
		c0.5,0,0.9-0.1,1.3-0.2c0.4-0.1,0.8-0.3,1.1-0.5c0.3-0.2,0.6-0.5,0.8-0.8c0.2-0.3,0.3-0.7,0.3-1.2c0-0.6-0.1-1.1-0.4-1.4
		c-0.2-0.3-0.5-0.6-0.9-0.8c-0.4-0.2-0.8-0.3-1.3-0.4c-0.5-0.1-0.9-0.1-1.4-0.1h-2v5.2c0.1,0,0.2,0.1,0.4,0.1c0.2,0,0.4,0,0.6,0
		c0.2,0,0.5,0,0.7,0C103.4,405.4,103.7,405.4,103.8,405.4z"/>
	<path class="st0" d="M129.2,408.2h-12v-19h3.7v15.7h8.3V408.2z"/>
	<path class="st0" d="M134.8,389.2h3.7v19h-3.7V389.2z"/>
	<path class="st0" d="M145.4,389.2h11.3v3.3h-7.6v4.4h6.9v3.3h-6.9v4.7h7.7v3.3h-11.4V389.2z"/>
	<path class="st0" d="M167.5,400.1h-1v8.1h-3.7v-19h3.7v8.4l0.9-0.4l5.2-8h4.2l-5.5,8l-1.5,1l1.5,1.1l6.3,8.9h-4.6L167.5,400.1z"/>
	<path class="st0" d="M191.2,403.1c0-0.6-0.2-1.1-0.6-1.4s-1-0.7-1.6-1c-0.6-0.3-1.3-0.6-2.1-0.9c-0.8-0.3-1.5-0.7-2.1-1.2
		s-1.2-1-1.6-1.7c-0.4-0.7-0.6-1.6-0.6-2.6c0-0.9,0.2-1.7,0.5-2.4c0.3-0.7,0.7-1.2,1.3-1.7c0.6-0.5,1.2-0.8,2-1s1.6-0.3,2.6-0.3
		c1.1,0,2.1,0.1,3.1,0.3c1,0.2,1.8,0.5,2.4,0.8l-1.2,3.1c-0.4-0.3-1-0.5-1.8-0.7c-0.8-0.2-1.7-0.3-2.6-0.3c-0.9,0-1.5,0.2-2,0.5
		c-0.5,0.3-0.7,0.8-0.7,1.4c0,0.5,0.2,1,0.6,1.4c0.4,0.4,1,0.7,1.6,1s1.3,0.6,2.1,1c0.8,0.3,1.5,0.7,2.1,1.2s1.2,1,1.6,1.7
		s0.6,1.5,0.6,2.5c0,1-0.2,1.9-0.5,2.6c-0.3,0.7-0.8,1.3-1.4,1.8c-0.6,0.5-1.3,0.9-2.2,1.1c-0.9,0.2-1.8,0.4-2.8,0.4
		c-1.4,0-2.6-0.1-3.6-0.4s-1.8-0.5-2.3-0.8l1.2-3.2c0.2,0.1,0.5,0.2,0.8,0.4c0.3,0.1,0.7,0.2,1.1,0.4c0.4,0.1,0.8,0.2,1.3,0.3
		c0.4,0.1,0.9,0.1,1.4,0.1c1.1,0,2-0.2,2.5-0.6C190.9,404.4,191.2,403.9,191.2,403.1z"/>
	<path class="st0" d="M208.8,403.1c0-0.6-0.2-1.1-0.6-1.4s-1-0.7-1.6-1c-0.6-0.3-1.3-0.6-2.1-0.9c-0.8-0.3-1.5-0.7-2.1-1.2
		s-1.2-1-1.6-1.7c-0.4-0.7-0.6-1.6-0.6-2.6c0-0.9,0.2-1.7,0.5-2.4c0.3-0.7,0.7-1.2,1.3-1.7c0.6-0.5,1.2-0.8,2-1s1.6-0.3,2.6-0.3
		c1.1,0,2.1,0.1,3.1,0.3c1,0.2,1.8,0.5,2.4,0.8L211,393c-0.4-0.3-1-0.5-1.8-0.7c-0.8-0.2-1.7-0.3-2.6-0.3c-0.9,0-1.5,0.2-2,0.5
		c-0.5,0.3-0.7,0.8-0.7,1.4c0,0.5,0.2,1,0.6,1.4c0.4,0.4,1,0.7,1.6,1s1.3,0.6,2.1,1c0.8,0.3,1.5,0.7,2.1,1.2s1.2,1,1.6,1.7
		s0.6,1.5,0.6,2.5c0,1-0.2,1.9-0.5,2.6c-0.3,0.7-0.8,1.3-1.4,1.8c-0.6,0.5-1.3,0.9-2.2,1.1c-0.9,0.2-1.8,0.4-2.8,0.4
		c-1.4,0-2.6-0.1-3.6-0.4s-1.8-0.5-2.3-0.8l1.2-3.2c0.2,0.1,0.5,0.2,0.8,0.4c0.3,0.1,0.7,0.2,1.1,0.4c0.4,0.1,0.8,0.2,1.3,0.3
		c0.4,0.1,0.9,0.1,1.4,0.1c1.1,0,2-0.2,2.5-0.6C208.5,404.4,208.8,403.9,208.8,403.1z"/>
	<path class="st0" d="M231.8,392.5h-5.5v15.7h-3.7v-15.7H217v-3.3h14.8V392.5z"/>
	<path class="st0" d="M237,389.2h11.3v3.3h-7.6v4.4h6.9v3.3h-6.9v4.7h7.7v3.3H237V389.2z"/>
	<path class="st0" d="M254.4,389.4c0.4-0.1,0.9-0.1,1.3-0.2s1-0.1,1.4-0.1s0.9-0.1,1.4-0.1c0.5,0,0.9,0,1.3,0c0.9,0,1.8,0.1,2.6,0.2
		c0.9,0.2,1.6,0.4,2.3,0.8c0.7,0.4,1.2,0.9,1.6,1.6c0.4,0.7,0.6,1.6,0.6,2.6c0,1.6-0.4,2.8-1.1,3.8c-0.7,1-1.7,1.7-2.9,2l1.3,0.8
		l4.4,7.3h-4.3l-4.3-7.5l-2-0.4v7.8h-3.7V389.4z M260.1,392.2c-0.4,0-0.8,0-1.1,0c-0.4,0-0.7,0.1-0.9,0.1v5.5h1.6
		c1,0,1.9-0.2,2.5-0.7s0.9-1.3,0.9-2.3c0-0.8-0.3-1.5-0.8-1.9S261.1,392.2,260.1,392.2z"/>
	<path class="st0" d="M274.1,389.4c0.4-0.1,0.9-0.1,1.3-0.2s1-0.1,1.4-0.1s0.9-0.1,1.4-0.1c0.5,0,0.9,0,1.3,0c0.9,0,1.8,0.1,2.6,0.2
		c0.9,0.2,1.6,0.4,2.3,0.8c0.7,0.4,1.2,0.9,1.6,1.6c0.4,0.7,0.6,1.6,0.6,2.6c0,1.6-0.4,2.8-1.1,3.8c-0.7,1-1.7,1.7-2.9,2l1.3,0.8
		l4.4,7.3h-4.3l-4.3-7.5l-2-0.4v7.8h-3.7V389.4z M279.8,392.2c-0.4,0-0.8,0-1.1,0c-0.4,0-0.7,0.1-0.9,0.1v5.5h1.6
		c1,0,1.9-0.2,2.5-0.7s0.9-1.3,0.9-2.3c0-0.8-0.3-1.5-0.8-1.9S280.8,392.2,279.8,392.2z"/>
	<path class="st0" d="M293.7,389.2H305v3.3h-7.6v4.4h6.9v3.3h-6.9v4.7h7.7v3.3h-11.4V389.2z"/>
	<path class="st0" d="M315.9,398.3l-1.5-3h-0.1l0.4,3v9.9h-3.5v-19.2h2.7l7.2,10.1l1.4,2.9h0.1l-0.4-2.9v-10h3.5v19.2H323
		L315.9,398.3z"/>
	<path class="st0" d="M337.2,399.8l0.4,3.4h0.1l0.4-3.4l3.3-10.6h2.4l3.3,10.6l0.4,3.4h0.1l0.4-3.4l2.3-10.6h3.8l-5.2,19.2h-2.5
		l-3.4-10.6l-0.5-2.9h-0.1l-0.5,2.9l-3.4,10.6h-2.6l-5.2-19.2h4.1L337.2,399.8z"/>
	<path class="st0" d="M367.6,404h-5.8l-1.4,4.2h-3.7l6.9-19.2h2.7l6.9,19.2h-3.9L367.6,404z M362.7,401h4.1l-1.4-4.2l-0.6-3h-0.1
		l-0.6,3L362.7,401z"/>
	<path class="st0" d="M390.2,407.4c-0.6,0.4-1.3,0.7-2.2,0.9s-1.8,0.3-2.8,0.3c-1.1,0-2.2-0.2-3.2-0.5c-1-0.4-1.9-0.9-2.7-1.7
		c-0.8-0.8-1.4-1.8-1.9-3.1c-0.5-1.3-0.7-2.8-0.7-4.6c0-1.9,0.3-3.4,0.8-4.7s1.2-2.3,2-3c0.8-0.8,1.7-1.3,2.8-1.7c1-0.3,2-0.5,3-0.5
		c1.1,0,2,0.1,2.8,0.2c0.8,0.1,1.4,0.3,1.9,0.5l-0.7,3.2c-0.4-0.2-0.9-0.3-1.5-0.4c-0.6-0.1-1.3-0.1-2.1-0.1c-1.5,0-2.7,0.5-3.6,1.6
		c-0.9,1.1-1.4,2.7-1.4,5c0,1,0.1,1.9,0.3,2.7c0.2,0.8,0.5,1.5,1,2.1c0.4,0.6,1,1,1.7,1.3c0.7,0.3,1.4,0.5,2.3,0.5
		c0.8,0,1.5-0.1,2.1-0.2c0.6-0.2,1.1-0.4,1.5-0.6L390.2,407.4z"/>
	<path class="st0" d="M406.4,400.3h-7v8h-3.7v-19h3.7v7.8h7v-7.8h3.7v19h-3.7V400.3z"/>
	<path class="st0" d="M430.2,392.5h-5.5v15.7h-3.7v-15.7h-5.6v-3.3h14.8V392.5z"/>
</g>
</svg>
