<?xml version="1.0" encoding="utf-8"?>
<!-- Generator: Adobe Illustrator 22.0.1, SVG Export Plug-In . SVG Version: 6.00 Build 0)  -->
<svg version="1.1" id="Layer_1" xmlns="http://www.w3.org/2000/svg" xmlns:xlink="http://www.w3.org/1999/xlink" x="0px" y="0px"
	 viewBox="0 0 30 30" style="enable-background:new 0 0 30 30;" xml:space="preserve">
	<path d="M9.91,19.56c0-0.85,0.2-1.64,0.59-2.38s0.94-1.35,1.65-1.84V5.42c0-0.8,0.27-1.48,0.82-2.03S14.2,2.55,15,2.55	c0.81,0,1.49,0.28,2.04,0.83c0.55,0.56,0.83,1.23,0.83,2.03v9.92c0.71,0.49,1.25,1.11,1.64,1.84s0.58,1.53,0.58,2.38 c0,0.92-0.23,1.78-0.68,2.56s-1.07,1.4-1.85,1.85s-1.63,0.68-2.56,0.68c-0.92,0-1.77-0.23-2.55-0.68s-1.4-1.07-1.86-1.85 S9.91,20.48,9.91,19.56z M11.67,19.56c0,0.93,0.33,1.73,0.98,2.39c0.65,0.66,1.44,0.99,2.36,0.99c0.93,0,1.73-0.33,2.4-1 s1.01-1.46,1.01-2.37c0-0.62-0.16-1.2-0.48-1.73c-0.32-0.53-0.76-0.94-1.32-1.23l-0.28-0.14c-0.1-0.04-0.15-0.14-0.15-0.29V5.42 c0-0.32-0.11-0.59-0.34-0.81C15.62,4.4,15.34,4.29,15,4.29c-0.32,0-0.6,0.11-0.83,0.32c-0.23,0.21-0.34,0.48-0.34,0.81v10.74 c0,0.15-0.05,0.25-0.14,0.29l-0.27,0.14c-0.55,0.29-0.98,0.7-1.29,1.23C11.82,18.35,11.67,18.92,11.67,19.56z"/> 
	<path d="m 15.3,17.05 c 0.61,0.08 1.14,0.37 1.57,0.85 0.43,0.48 0.65,1.04 0.65,1.67 0,0.7 -0.25,1.31 -0.76,1.81 -0.51,0.5 -1.1,0.75 -1.79,0.75 -0.69,0 -1.27,-0.25 -1.76,-0.75 -0.49,-0.5 -0.73,-1.11 -0.73,-1.82 0,-0.64 0.21,-1.19 0.65,-1.68 0.43,-0.48 0.95,-0.76 1.56,-0.85 l 0.61,0.02 -0.61,-0.02"/>
	<path d="M 15.3,16.935608 V 5.3003663 C 15.3,5.2055135 15.27,5.0948525 15.2,5 15.13,4.8893383 15.06,4.8419124 14.98,4.8419124 c -0.09,0 -0.16,0.047426 -0.21,0.1264696 -0.05,0.094853 -0.08,0.1897051 -0.08,0.3319838 V 16.90399 c 0.335219,0.447633 0.324332,0.455881 0.61,0.03162 z"/>
</svg>
